<svg xmlns="http://www.w3.org/2000/svg" version="1.1" xmlns:xlink="http://www.w3.org/1999/xlink" xmlns:svgjs="http://svgjs.dev/svgjs" width="1000" height="1000" viewBox="0 0 1000 1000"><rect width="1000" height="1000" fill="#ffffff"></rect><g transform="matrix(0.7,0,0,0.7,149.57575757575756,315.46759688324113)"><svg viewBox="0 0 396 209" data-background-color="#ffffff" preserveAspectRatio="xMidYMid meet" height="527" width="1000" xmlns="http://www.w3.org/2000/svg" xmlns:xlink="http://www.w3.org/1999/xlink"><g id="tight-bounds" transform="matrix(1,0,0,1,0.2400000000000091,0.046685419904065384)"><svg viewBox="0 0 395.52 208.90662916019187" height="208.90662916019187" width="395.52"><g><svg viewBox="0 0 395.52 208.90662916019187" height="208.90662916019187" width="395.52"><g transform="matrix(1,0,0,1,0,145.77522052521587)"><svg viewBox="0 0 395.52 63.131408634976005" height="63.131408634976005" width="395.52"><g id="textblocktransform"><svg viewBox="0 0 395.52 63.131408634976005" height="63.131408634976005" width="395.52" id="textblock"><g><svg viewBox="0 0 395.52 63.131408634976005" height="63.131408634976005" width="395.52"><g transform="matrix(1,0,0,1,0,0)"><svg width="395.52" viewBox="3.4 -36 229.28 36.6" height="63.131408634976005" data-palette-color="#ea3c12"><path d="M9.8 0L3.4 0 3.4-35 9.8-35 9.8-20.85 22.75-35 30.65-35 17.75-21.1 31 0 23.15 0 13.15-16.2 9.8-12.55 9.8 0ZM45.1 0.6L45.1 0.6Q41.5 0.6 38.62-1.05 35.75-2.7 34.07-5.63 32.4-8.55 32.4-12.4L32.4-12.4Q32.4-16.25 34.1-19.18 35.8-22.1 38.67-23.75 41.55-25.4 45.15-25.4L45.15-25.4Q48.7-25.4 51.57-23.75 54.45-22.1 56.12-19.18 57.8-16.25 57.8-12.4L57.8-12.4Q57.8-8.55 56.12-5.63 54.45-2.7 51.55-1.05 48.65 0.6 45.1 0.6ZM45.1-4.95L45.1-4.95Q47.6-4.95 49.45-6.83 51.3-8.7 51.3-12.4L51.3-12.4Q51.3-16.1 49.45-17.98 47.6-19.85 45.15-19.85L45.15-19.85Q42.6-19.85 40.77-17.98 38.95-16.1 38.95-12.4L38.95-12.4Q38.95-8.7 40.77-6.83 42.6-4.95 45.1-4.95ZM74.9 0.6L74.9 0.6Q71.4 0.6 68.65-1.1 65.9-2.8 64.3-5.75 62.7-8.7 62.7-12.45L62.7-12.45Q62.7-16.2 64.3-19.13 65.9-22.05 68.65-23.73 71.4-25.4 74.9-25.4L74.9-25.4Q77.7-25.4 79.8-24.35 81.9-23.3 83.2-21.4L83.2-21.4 83.2-36 89.59-36 89.59 0 83.9 0 83.2-3.55Q82-1.9 80.02-0.65 78.05 0.6 74.9 0.6ZM76.25-5L76.25-5Q79.34-5 81.32-7.08 83.3-9.15 83.3-12.4L83.3-12.4Q83.3-15.65 81.32-17.73 79.34-19.8 76.25-19.8L76.25-19.8Q73.2-19.8 71.2-17.75 69.2-15.7 69.2-12.45L69.2-12.45Q69.2-9.2 71.2-7.1 73.2-5 76.25-5ZM122.69 0.6L122.69 0.6Q119.89 0.6 117.79-0.45 115.69-1.5 114.39-3.4L114.39-3.4 113.69 0 107.99 0 107.99-36 114.39-36 114.39-21.25Q115.59-22.9 117.57-24.15 119.54-25.4 122.69-25.4L122.69-25.4Q126.19-25.4 128.94-23.7 131.69-22 133.29-19.05 134.89-16.1 134.89-12.35L134.89-12.35Q134.89-8.6 133.29-5.68 131.69-2.75 128.94-1.07 126.19 0.6 122.69 0.6ZM121.34-5L121.34-5Q124.39-5 126.39-7.05 128.39-9.1 128.39-12.35L128.39-12.35Q128.39-15.6 126.39-17.7 124.39-19.8 121.34-19.8L121.34-19.8Q118.24-19.8 116.27-17.73 114.29-15.65 114.29-12.4L114.29-12.4Q114.29-9.15 116.27-7.08 118.24-5 121.34-5ZM146.99 0L140.59 0 140.59-24.8 146.29-24.8 146.89-20.15Q148.24-22.55 150.56-23.98 152.89-25.4 156.04-25.4L156.04-25.4 156.04-18.65 154.24-18.65Q152.14-18.65 150.49-18 148.84-17.35 147.91-15.75 146.99-14.15 146.99-11.3L146.99-11.3 146.99 0ZM168.94 0.6L168.94 0.6Q165.74 0.6 163.69-0.43 161.64-1.45 160.64-3.15 159.64-4.85 159.64-6.9L159.64-6.9Q159.64-10.35 162.34-12.5 165.04-14.65 170.44-14.65L170.44-14.65 176.74-14.65 176.74-15.25Q176.74-17.8 175.29-19 173.84-20.2 171.69-20.2L171.69-20.2Q169.74-20.2 168.29-19.28 166.84-18.35 166.49-16.55L166.49-16.55 160.24-16.55Q160.49-19.25 162.06-21.25 163.64-23.25 166.14-24.33 168.64-25.4 171.74-25.4L171.74-25.4Q177.04-25.4 180.09-22.75 183.14-20.1 183.14-15.25L183.14-15.25 183.14 0 177.69 0 177.09-4Q175.99-2 174.01-0.7 172.04 0.6 168.94 0.6ZM170.39-4.4L170.39-4.4Q173.14-4.4 174.66-6.2 176.19-8 176.59-10.65L176.59-10.65 171.14-10.65Q168.59-10.65 167.49-9.73 166.39-8.8 166.39-7.45L166.39-7.45Q166.39-6 167.49-5.2 168.59-4.4 170.39-4.4ZM204.28 0L199.93 0Q196.03 0 193.68-1.9 191.33-3.8 191.33-8.65L191.33-8.65 191.33-19.45 187.08-19.45 187.08-24.8 191.33-24.8 192.08-31.45 197.73-31.45 197.73-24.8 204.43-24.8 204.43-19.45 197.73-19.45 197.73-8.6Q197.73-6.8 198.51-6.13 199.28-5.45 201.18-5.45L201.18-5.45 204.28-5.45 204.28 0ZM218.48 0.6L218.48 0.6Q215.28 0.6 213.23-0.43 211.18-1.45 210.18-3.15 209.18-4.85 209.18-6.9L209.18-6.9Q209.18-10.35 211.88-12.5 214.58-14.65 219.98-14.65L219.98-14.65 226.28-14.65 226.28-15.25Q226.28-17.8 224.83-19 223.38-20.2 221.23-20.2L221.23-20.2Q219.28-20.2 217.83-19.28 216.38-18.35 216.03-16.55L216.03-16.55 209.78-16.55Q210.03-19.25 211.61-21.25 213.18-23.25 215.68-24.33 218.18-25.4 221.28-25.4L221.28-25.4Q226.58-25.4 229.63-22.75 232.68-20.1 232.68-15.25L232.68-15.25 232.68 0 227.23 0 226.63-4Q225.53-2 223.56-0.7 221.58 0.6 218.48 0.6ZM219.93-4.4L219.93-4.4Q222.68-4.4 224.21-6.2 225.73-8 226.13-10.65L226.13-10.65 220.68-10.65Q218.13-10.65 217.03-9.73 215.93-8.8 215.93-7.45L215.93-7.45Q215.93-6 217.03-5.2 218.13-4.4 219.93-4.4Z" opacity="1" transform="matrix(1,0,0,1,0,0)" fill="#ea3c12" class="wordmark-text-0" data-fill-palette-color="primary" id="text-0"></path></svg></g></svg></g></svg></g></svg></g><g transform="matrix(1,0,0,1,124.34834584864164,0)"><svg viewBox="0 0 146.8233083027167 130.87141010030527" height="130.87141010030527" width="146.8233083027167"><g><svg xmlns="http://www.w3.org/2000/svg" xmlns:xlink="http://www.w3.org/1999/xlink" version="1.1" x="8" y="0" viewBox="0.01820386256780493 0 99.96324499174287 100" enable-background="new 0 0 100 100" xml:space="preserve" height="130.87141010030527" width="130.8233083027167" class="icon-icon-0" data-fill-palette-color="accent" id="icon-0"><g fill="#ea9937" data-fill-palette-color="accent"><path d="M73.428 5.851C66.234 2.019 58.144 0 50.039 0 31.477 0 14.542 10.186 5.846 26.566-7.075 50.918 2.212 81.241 26.562 94.161 33.768 97.979 41.848 100 49.953 100c18.573 0 35.509-10.174 44.204-26.556C107.077 49.095 97.778 18.77 73.428 5.851zM28.003 91.439C5.156 79.307-3.564 50.855 8.556 28.008 16.722 12.637 32.61 3.079 50.039 3.079c7.599 0 15.185 1.896 21.948 5.492 22.849 12.119 31.569 40.572 19.448 63.42-8.166 15.384-24.055 24.93-41.482 24.93C42.353 96.921 34.766 95.024 28.003 91.439z" fill="#ea9937" data-fill-palette-color="accent"></path><path d="M86.386 29.178c-0.42-0.738-1.356-0.998-2.095-0.566-0.738 0.419-0.998 1.368-0.58 2.095 0.112 0.209 0.236 0.406 0.347 0.615 9.582 17.465 4.2 39.672-12.44 50.808-8.438 5.653-18.524 7.746-28.488 5.924-0.234-0.038-0.456-0.073-0.69-0.124-0.825-0.159-1.638 0.382-1.811 1.207-0.172 0.838 0.37 1.65 1.207 1.824 2.771 0.553 5.542 0.825 8.302 0.825 8.204 0 16.22-2.428 23.204-7.095C91.508 72.521 97.236 48.135 86.386 29.178z" fill="#ea9937" data-fill-palette-color="accent"></path><path d="M25.799 80.183c-1.762-1.405-3.4-2.969-4.89-4.682-1.108-1.256-2.144-2.598-3.079-4.003l-1.281 0.863 1.207-0.986C5.969 53.639 10.772 29.561 28.459 17.71c5.481-3.67 11.788-5.874 18.303-6.429 0.197-0.025 0.395-0.037 0.592-0.05 0.85-0.048 1.49-0.787 1.428-1.638-0.062-0.85-0.801-1.489-1.638-1.429-7.267 0.493-14.312 2.907-20.397 6.983C7.656 27.946 2.458 53.935 15.133 72.989c0.049 0.073 0.099 0.159 0.135 0.222 1.022 1.516 2.131 2.969 3.326 4.323 1.749 1.995 3.695 3.843 5.789 5.455 0.271 0.223 0.604 0.32 0.937 0.32 0.468 0 0.911-0.209 1.219-0.591 0.518-0.677 0.395-1.637-0.271-2.167C26.107 80.428 25.947 80.305 25.799 80.183z" fill="#ea9937" data-fill-palette-color="accent"></path><path d="M64.449 13.917c4.359 1.748 8.326 4.237 11.774 7.403 0.295 0.271 0.678 0.405 1.047 0.405 0.42 0 0.826-0.171 1.134-0.504 0.577-0.616 0.529-1.602-0.099-2.169-3.72-3.423-8.006-6.108-12.711-7.993-0.801-0.32-1.688 0.062-2.009 0.851C63.278 12.71 63.66 13.597 64.449 13.917z" fill="#ea9937" data-fill-palette-color="accent"></path></g><path d="M42.932 69.048c-0.32-1.959-1.798-3.523-3.633-4.028-0.024-0.381-0.049-0.763-0.062-1.145-0.012-0.518-0.012-1.059 0-1.614 0.025-0.565 0.062-1.134 0.099-1.699 0.111-1.184 0.284-2.316 0.505-3.375 0.221-0.998 0.517-2.032 0.862-2.98l0.924-2.144c0.123-0.246 0.234-0.431 0.308-0.566 0-0.013 0.123-0.21 0.136-0.223 3.251-5.319 2.044-12.131-2.599-16.023-0.468-0.395-0.96-0.751-1.502-1.084-1.959-1.206-4.212-1.848-6.504-1.848-4.36 0-8.326 2.229-10.617 5.938-3.215 5.26-2.069 12.169 2.636 16.062 0.013 0.012 0.111 0.099 0.123 0.099l0.099 0.086c0.111 0.111 0.283 0.258 0.493 0.467l1.552 1.713c0.616 0.775 1.231 1.65 1.773 2.55 0.554 0.924 1.084 1.934 1.564 3.017 0.221 0.529 0.443 1.06 0.641 1.577 0.196 0.53 0.369 1.034 0.517 1.54 0.012 0.037 0.024 0.061 0.037 0.099l-0.504 1.649c-1.097 1.121-1.626 2.71-1.355 4.337 0 0.023 0.012 0.048 0.012 0.073 0.395 2.155 2.18 3.843 4.36 4.102 0.197 0.012 0.395 0.025 0.591 0.025 0.271 0 0.542-0.014 0.813-0.062 0.813-0.135 1.564-0.455 2.205-0.937 0.764 0.247 1.564 0.309 2.39 0.174 0.468-0.075 0.911-0.223 1.342-0.42C42.143 73.444 43.289 71.24 42.932 69.048zM38.805 71.622c-0.16 0.085-0.333 0.136-0.517 0.172-0.48 0.074-0.96-0.024-1.355-0.283-0.665-0.419-1.54-0.271-2.032 0.334-0.295 0.38-0.727 0.628-1.194 0.701-0.185 0.037-0.37 0.037-0.554 0.012-0.85-0.098-1.552-0.764-1.688-1.613-0.147-0.888 0.345-1.786 1.195-2.119l0.123-0.048c0.751-0.234 1.194-0.986 1.046-1.763-0.16-0.825-0.369-1.688-0.64-2.548-0.173-0.568-0.357-1.134-0.579-1.726-0.222-0.566-0.456-1.145-0.702-1.725-0.049-0.123-0.111-0.233-0.172-0.344V60.66c-0.493-1.085-1.01-2.095-1.577-3.019-0.616-1.009-1.305-2.007-2.02-2.895l-1.564-1.761-0.234-0.233c-0.259-0.247-0.469-0.444-0.604-0.556l-0.259-0.221c-3.56-2.957-4.421-8.153-1.995-12.107 1.712-2.796 4.693-4.472 7.981-4.472 1.725 0 3.412 0.48 4.89 1.392 0.813 0.493 1.515 1.098 2.106 1.774 2.661 3.006 3.189 7.501 1.022 11.036-0.012 0.023-0.086 0.135-0.099 0.16l-0.099 0.159c-0.099 0.174-0.246 0.431-0.394 0.727-0.062 0.111-0.111 0.222-0.173 0.346l-0.579 1.317c-0.012 0.013-0.049 0.123-0.062 0.148l-0.271 0.689c-0.382 1.084-0.727 2.254-0.973 3.388-0.258 1.182-0.444 2.449-0.566 3.768-0.049 0.628-0.086 1.244-0.111 1.86-0.012 0.615-0.012 1.22 0 1.799 0.038 0.887 0.099 1.773 0.222 2.636 0.11 0.775 0.776 1.342 1.564 1.33l0.062-1.54 0.074 1.54c0.899 0.05 1.663 0.727 1.811 1.625C40.037 70.402 39.594 71.253 38.805 71.622z" fill="#ea9937" data-fill-palette-color="accent"></path><path d="M57.133 59.588c0.727 1.552 1.934 2.834 3.448 3.635 0.11 0.061 0.233 0.123 0.344 0.171 1.455 0.679 3.104 0.899 4.682 0.641 0.899 0.333 1.823 0.506 2.783 0.506 0.777 0 1.552-0.124 2.304-0.346 1.639-0.505 3.067-1.527 4.076-2.918 2.181-0.53 4.065-1.984 5.124-3.979 1.097-2.045 1.22-4.484 0.358-6.64 0.368-1.416 0.344-2.895-0.087-4.312-0.604-1.958-1.934-3.571-3.658-4.556-0.542-0.309-1.109-0.555-1.712-0.727-0.543-0.506-1.133-0.936-1.774-1.282-1.527-0.813-3.312-1.096-5.025-0.813-1.612-0.603-3.411-0.664-5.073-0.146-0.702 0.209-1.367 0.518-1.983 0.924-2.647 0.233-5.025 1.798-6.27 4.163-0.702 1.305-1.01 2.746-0.911 4.226-1.244 1.944-1.589 4.358-0.911 6.589C53.513 56.879 55.088 58.652 57.133 59.588zM57.379 45.35c0.813-1.526 2.39-2.5 4.126-2.562 0.32 0 0.616-0.111 0.875-0.295 0.443-0.333 0.923-0.58 1.44-0.728 1.121-0.346 2.315-0.271 3.4 0.21 0.308 0.147 0.652 0.171 0.984 0.098 1.146-0.271 2.34-0.122 3.375 0.432 0.469 0.246 0.899 0.579 1.282 0.997 0.209 0.223 0.491 0.382 0.786 0.444 0.358 0.087 0.715 0.209 1.036 0.369 1.206 0.566 2.142 1.639 2.536 2.932 0.296 0.984 0.284 2.021-0.062 3.004-0.136 0.395-0.11 0.825 0.074 1.196 0.69 1.392 0.666 3.042-0.061 4.409-0.715 1.366-2.021 2.278-3.561 2.512-0.456 0.062-0.862 0.333-1.097 0.728-0.616 1.034-1.588 1.798-2.721 2.155-1.121 0.333-2.329 0.259-3.399-0.223-0.197-0.099-0.42-0.135-0.629-0.135-0.124 0-0.247 0.013-0.357 0.036-0.874 0.21-1.772 0.174-2.623-0.11-0.259-0.085-0.518-0.197-0.764-0.32-1.047-0.553-1.848-1.49-2.267-2.623-0.16-0.432-0.505-0.764-0.936-0.924-1.466-0.517-2.574-1.663-3.03-3.141-0.443-1.479-0.159-3.104 0.788-4.335 0.247-0.333 0.357-0.752 0.296-1.158C56.727 47.283 56.899 46.262 57.379 45.35z" fill="#ea9937" data-fill-palette-color="accent"></path></svg></g></svg></g><g><rect width="124.34834584864164" height="5.693255582315848" y="124.17815451798943" x="271.1716541513583" fill="#ea9937" data-fill-palette-color="accent"></rect><rect width="124.34834584864164" height="5.693255582315848" y="124.17815451798943" x="0" fill="#ea9937" data-fill-palette-color="accent"></rect><rect width="124.34834584864164" height="5.693255582315848" y="112.79164335335773" x="271.1716541513583" fill="#ea9937" data-fill-palette-color="accent"></rect><rect width="124.34834584864164" height="5.693255582315848" y="112.79164335335773" x="0" fill="#ea9937" data-fill-palette-color="accent"></rect></g></svg></g><defs></defs></svg><rect width="395.52" height="208.90662916019187" fill="none" stroke="none" visibility="hidden"></rect></g></svg></g></svg>